<svg id="Layer_1" enable-background="new 0 0 508.659 508.659" height="512" viewBox="0 0 508.659 508.659" width="512" xmlns="http://www.w3.org/2000/svg"><path d="m503.954 481.344c-93.416-93.416-385.625-385.625-476.641-476.64-10.058-10.061-27.313-2.905-27.313 11.313v476.641c0 8.837 7.164 16 16 16h476.641c14.204 0 21.386-17.241 11.313-27.314zm-471.954-4.686v-422.014l61.593 61.593-11.487 11.487c-6.249 6.248-6.249 16.379 0 22.627 6.249 6.249 16.378 6.248 22.627 0l11.487-11.487 46.423 46.423-11.487 11.488c-6.249 6.248-6.249 16.379 0 22.627 6.249 6.249 16.378 6.248 22.627 0l11.487-11.487 46.423 46.423-11.487 11.487c-6.249 6.248-6.249 16.379 0 22.627 6.249 6.249 16.378 6.248 22.627 0l11.487-11.487 46.423 46.423-11.487 11.487c-6.249 6.248-6.249 16.379 0 22.627 6.249 6.249 16.378 6.248 22.627 0l11.487-11.487 46.423 46.423-11.488 11.487c-6.249 6.248-6.249 16.379 0 22.627 6.246 6.247 16.378 6.25 22.627 0l11.488-11.487 61.593 61.593z"/><path d="m152.48 266.706c-18.779-18.782-50.995-5.461-50.995 21.122v89.472c0 16.472 13.4 29.873 29.872 29.873h89.473c26.562 0 39.919-32.2 21.123-50.995zm-18.995 108.467v-82.208l82.208 82.208z"/></svg>